<svg width="168" height="168" viewBox="0 0 168 168" fill="none" xmlns="http://www.w3.org/2000/svg">
  <defs>
    <linearGradient id="g" x1="25" y1="15" x2="145" y2="160" gradientUnits="userSpaceOnUse">
      <stop stop-color="#5EEAD4"/>
      <stop offset="0.52" stop-color="#00A88E"/>
      <stop offset="1" stop-color="#F6B44B"/>
    </linearGradient>
    <filter id="s" x="0" y="0" width="168" height="168" filterUnits="userSpaceOnUse">
      <feDropShadow dx="0" dy="16" stdDeviation="18" flood-color="#000000" flood-opacity="0.32"/>
    </filter>
  </defs>
  <rect width="168" height="168" rx="42" fill="#08111F"/>
  <g filter="url(#s)">
    <path d="M84 25L130 42V80C130 111 111 137 84 148C57 137 38 111 38 80V42L84 25Z" fill="#0D1B2A" stroke="url(#g)" stroke-width="5"/>
    <path d="M61 80H107" stroke="#F8F5EF" stroke-width="8" stroke-linecap="round"/>
    <path d="M66 61H102" stroke="#F8F5EF" stroke-width="8" stroke-linecap="round" opacity="0.9"/>
    <path d="M70 99H98" stroke="#F8F5EF" stroke-width="8" stroke-linecap="round" opacity="0.8"/>
    <path d="M84 43L89 64L110 69L91 80L96 101L84 87L72 101L77 80L58 69L79 64L84 43Z" fill="url(#g)" opacity="0.95"/>
  </g>
</svg>
